<?xml version="1.0" standalone="no"?><!DOCTYPE svg PUBLIC "-//W3C//DTD SVG 1.1//EN" "http://www.w3.org/Graphics/SVG/1.1/DTD/svg11.dtd"><svg class="icon" width="200px" height="200.00px" viewBox="0 0 1024 1024" version="1.1" xmlns="http://www.w3.org/2000/svg"><path fill="#8e8e8e" d="M533.5 855.3H364.6c-43.2 0-78.3-35.1-78.3-78.3V343.6c0-43.2 35.1-78.3 78.3-78.3H758c43.2 0 78.3 35.1 78.3 78.3v227.6h-50V343.6c0-15.6-12.7-28.3-28.3-28.3H364.6c-15.6 0-28.3 12.7-28.3 28.3V777c0 15.6 12.7 28.3 28.3 28.3h168.9v50zM237.7 680.4h-50V247c0-43.2 35.1-78.3 78.3-78.3h393.5v50H266c-15.6 0-28.3 12.7-28.3 28.3v433.4zM692.8 461.3h-270c-13.8 0-25-11.2-25-25s11.2-25 25-25h270c13.8 0 25 11.2 25 25s-11.2 25-25 25zM532.8 589.6h-110c-13.8 0-25-11.2-25-25s11.2-25 25-25h110c13.8 0 25 11.2 25 25s-11.2 25-25 25zM808.8 640.6c-6.4 0-12.8 2.4-17.7 7.3L646.9 792.1 586.8 732c-4.9-4.9-11.3-7.3-17.7-7.3s-12.8 2.4-17.7 7.3c-9.8 9.8-9.8 25.6 0 35.4l77.8 77.8c4.9 4.9 11.3 7.3 17.7 7.3s12.8-2.4 17.7-7.3l161.8-161.8c9.8-9.8 9.8-25.6 0-35.4-4.9-5-11.3-7.4-17.6-7.4z" /></svg>